# xmcd
#
# Track frame offsets: 
#        150
#        16067
#        32004
#        46385
#        58657
#        73657
#        90173
#        107231
#        128031
#        142662
#        158617
#        177121
#        194142
#        209686
#
# Disc length: 2994 seconds
#
# Revision: 0
# Processed by: cddbd v1.4PL0 Copyright (c) Steve Scherf et al.
# Submitted via: ExactAudioCopy v0.90b4
#
DISCID=ba0bb00e
DTITLE=LOBISOMEM - CPI NA FAZENDA
DYEAR=2000
DGENRE=Country
TTITLE0=CPI Na Fazenda
TTITLE1=Caminhão Do Ricardo
TTITLE2=Baila Na Praia
TTITLE3=Trocando Tudo
TTITLE4=O Fuxiqueiro
TTITLE5=Continue ... Cavalo
TTITLE6=Daqui Até São Lourenço
TTITLE7=Eira, Eira Minha Vida
TTITLE8=Dasabafo De Um Amigo
TTITLE9=Repontando Os Peões
TTITLE10=O Passo Das Cotovias
TTITLE11=Reformando O Galpão
TTITLE12=Lamento Do Gado
TTITLE13=É Gol
EXTD=
EXTT0=
EXTT1=
EXTT2=
EXTT3=
EXTT4=
EXTT5=
EXTT6=
EXTT7=
EXTT8=
EXTT9=
EXTT10=
EXTT11=
EXTT12=
EXTT13=
PLAYORDER=
